<svg width="1920" height="720" viewBox="0 0 1920 720" fill="none" xmlns="http://www.w3.org/2000/svg">
<mask id="mask0" mask-type="alpha" maskUnits="userSpaceOnUse" x="0" y="0" width="1920" height="720">
<rect width="1920" height="720" fill="#C4C4C4"/>
</mask>
<g mask="url(#mask0)">
<path d="M630 684L334.539 671.219L95.846 712.219L-80 702.219L-58 718.219H1975.88V337L1696 501L1450 541L1288 595L939.873 631.219L630 684Z" fill="white"/>
<path d="M619.961 707.219L323.353 689.219L96.6597 717.219L-58 707.219V776.219H1975.88L1992 461L1683.51 581.219L1428.22 602.219L1300.04 643.219L918.687 669.219L619.961 707.219Z" fill="#0C121C"/>
<path d="M619.961 709.219L323.353 691.219L96.6597 719.219L-58 709.219V778.219H1975.88L1992 463L1683.51 583.219L1428.22 604.219L1300.04 645.219L918.687 671.219L619.961 709.219Z" fill="#0C121C"/>
</g>
</svg>
