<svg width="167" height="50" viewBox="0 0 167 50" fill="none" xmlns="http://www.w3.org/2000/svg">
<path d="M54.5598 22.2683C55.7931 22.7123 56.7428 23.5017 57.4088 24.6363C58.0994 25.7463 58.4448 27.1893 58.4448 28.9653C58.4448 31.3333 57.8651 33.208 56.7058 34.5893C55.5711 35.946 53.8444 36.6243 51.5258 36.6243C50.6131 36.6243 49.7251 36.4887 48.8618 36.2173C47.9984 35.946 47.2461 35.5883 46.6048 35.1443L47.4558 32.5543C48.0231 32.8997 48.6151 33.1957 49.2318 33.4423C49.8731 33.689 50.5391 33.8123 51.2298 33.8123C52.4878 33.8123 53.4621 33.43 54.1528 32.6653C54.8681 31.876 55.2258 30.6303 55.2258 28.9283C55.2258 27.2263 54.8311 25.9437 54.0418 25.0803C53.2771 24.217 52.0438 23.7853 50.3418 23.7853H49.3798V21.0843H50.1938C51.6738 21.0843 52.7714 20.6897 53.4868 19.9003C54.2021 19.111 54.5598 18.0133 54.5598 16.6073C54.5598 15.2753 54.2761 14.2887 53.7088 13.6473C53.1414 12.9813 52.3891 12.6483 51.4518 12.6483C50.8104 12.6483 50.1938 12.7717 49.6018 13.0183C49.0344 13.265 48.5411 13.5733 48.1218 13.9433L46.8638 11.6123C47.5051 11.0203 48.2574 10.5763 49.1208 10.2803C50.0088 9.98433 50.8844 9.83633 51.7478 9.83633C53.6718 9.83633 55.1518 10.4407 56.1878 11.6493C57.2238 12.858 57.7418 14.4613 57.7418 16.4593C57.7418 17.8653 57.4581 19.0617 56.8908 20.0483C56.3481 21.0103 55.5711 21.7503 54.5598 22.2683Z" fill="#C7DDEB"/>
<path d="M27.2033 29.9274C27.0644 31.0535 26.817 32.0523 26.4611 32.9238C26.1326 33.7742 25.6726 34.4816 25.0812 35.0459C24.5142 35.6137 23.7943 36.0106 22.9215 36.2365C22.0732 36.4659 21.0628 36.4981 19.8904 36.3332C18.9622 36.2027 18.0887 35.9304 17.27 35.5164C16.4483 35.1268 15.7272 34.6269 15.1066 34.0166L16.5273 31.564C16.9033 31.9406 17.4151 32.3239 18.0629 32.7139C18.738 33.0828 19.4054 33.3137 20.0649 33.4064C20.5778 33.4786 21.0372 33.4809 21.4432 33.4135C21.8735 33.3495 22.2548 33.179 22.5872 32.9019C22.9226 32.6004 23.1982 32.1785 23.4142 31.636C23.6332 31.0691 23.7971 30.3449 23.9057 29.4636L26.2103 10.7721L29.5078 11.2359L27.2033 29.9274Z" fill="#C7DDEB"/>
<path d="M90.988 14.3113C90.0631 15.4779 89.0181 16.8616 87.8529 18.4624C86.6915 20.0387 85.5208 21.676 84.3408 23.3742C83.1889 25.0523 82.079 26.7001 81.0111 28.3176C79.9674 29.9392 79.0907 31.3645 78.3809 32.5934L88.2253 34.2932L87.7989 37.1101L74.4543 34.8059L74.7589 32.7938C75.2712 31.8812 75.859 30.8816 76.5223 29.7948C77.1857 28.7081 77.891 27.5911 78.6383 26.4438C79.3894 25.2721 80.1525 24.1025 80.9279 22.935C81.7275 21.7718 82.5095 20.6429 83.2737 19.5486C84.0623 18.4585 84.8033 17.4352 85.4968 16.4789C86.2183 15.5023 86.8709 14.6515 87.4545 13.9264L78.3394 12.3524L78.7658 9.53553L91.3811 11.7138L90.988 14.3113Z" fill="#C7DDEB"/>
<path d="M103.113 23.8083L105.397 23.5877C108.441 23.2936 109.847 21.7701 109.614 19.0173C109.541 18.157 109.346 17.4696 109.03 16.9549C108.737 16.4133 108.369 16.0152 107.927 15.7606C107.482 15.4814 106.973 15.3077 106.397 15.2393C105.847 15.1686 105.265 15.1629 104.651 15.2222C104.283 15.2578 103.903 15.3069 103.512 15.3694C103.146 15.4296 102.781 15.502 102.417 15.5868L103.113 23.8083ZM103.338 26.4628L104.119 35.6798C104.591 35.7085 105.051 35.7261 105.497 35.7325C105.968 35.7366 106.424 35.7173 106.866 35.6746C107.553 35.6082 108.198 35.4716 108.799 35.2648C109.4 35.058 109.907 34.7612 110.32 34.3744C110.758 33.9853 111.074 33.4839 111.27 32.8702C111.488 32.2297 111.559 31.467 111.484 30.5822C111.355 29.0583 110.837 27.9065 109.929 27.1269C109.046 26.345 107.733 26.0382 105.99 26.2066L103.338 26.4628ZM98.9087 13.6212C99.7514 13.3415 100.611 13.1099 101.486 12.9261C102.384 12.7155 103.275 12.5674 104.159 12.482C105.264 12.3753 106.317 12.3851 107.317 12.5114C108.341 12.6108 109.255 12.8818 110.06 13.3244C110.862 13.7424 111.52 14.3479 112.033 15.1409C112.568 15.9069 112.888 16.9044 112.992 18.1333C113.121 19.6572 112.908 20.9416 112.353 21.9864C111.796 23.0066 111.033 23.7989 110.066 24.3631C111.36 24.7337 112.455 25.3837 113.35 26.3132C114.246 27.2426 114.769 28.5922 114.919 30.3618C115.031 31.6891 114.905 32.8288 114.54 33.7809C114.2 34.7306 113.661 35.5384 112.926 36.2042C112.188 36.8454 111.278 37.3546 110.196 37.7317C109.137 38.0818 107.956 38.3198 106.655 38.4455C105.796 38.5285 104.895 38.566 103.954 38.5578C103.013 38.5496 102.03 38.4959 101.007 38.3965L98.9087 13.6212Z" fill="#C7DDEB"/>
<path d="M131.306 35.001C131.355 33.817 131.478 32.5466 131.676 31.19C131.898 29.8086 132.169 28.415 132.49 27.009C132.81 25.603 133.156 24.197 133.526 22.791C133.92 21.3603 134.34 20.0036 134.784 18.721C135.228 17.4136 135.672 16.205 136.116 15.095C136.56 13.985 137.004 13.0106 137.448 12.172H128.716V9.35998H141.037V11.839C140.445 12.801 139.791 14.1206 139.076 15.798C138.36 17.4506 137.682 19.3253 137.041 21.422C136.424 23.494 135.881 25.7016 135.413 28.045C134.944 30.3883 134.66 32.707 134.562 35.001H131.306Z" fill="#C7DDEB"/>
<path d="M1 14.4302L166 24.0427L12 37.9275" stroke="#C7DDEB"/>
</svg>
