<svg width="22" height="20" viewBox="0 0 22 20" fill="none" xmlns="http://www.w3.org/2000/svg">
<path d="M13.2 7.26666C14.1667 7.26666 14.9333 6.49998 14.9333 5.53331C14.9333 4.56665 14.1667 3.79997 13.2 3.79997C12.2334 3.79997 11.4667 4.56665 11.4667 5.53331C11.4667 6.49998 12.2334 7.26666 13.2 7.26666ZM14.4667 7.9H10.1667L10.1333 9.16664H11.5334V14.5H10.6V15.9H15.8333V14.5H14.4334V7.9H14.4667ZM1.53338 7.86664H3.66671C4.23337 7.86664 4.66666 7.43333 4.66666 6.89999C4.66666 6.36666 4.23337 5.89998 3.66671 5.89998H1.53338C1.00004 5.89998 0.533366 6.33333 0.533366 6.89999C0.533366 7.43333 0.966709 7.86664 1.53338 7.86664ZM1.53338 11H3.66671C4.23337 11 4.66666 10.5667 4.66666 10.0333C4.66666 9.5 4.23337 9.03333 3.66671 9.03333H1.53338C1.00004 9.03333 0.533366 9.46667 0.533366 10.0333C0.533366 10.5667 0.966709 11 1.53338 11ZM1.53338 4.7333H3.66671C4.23337 4.7333 4.66666 4.29999 4.66666 3.76665C4.66666 3.23332 4.23337 2.76664 3.66671 2.76664H1.53338C1.00004 2.76664 0.533366 3.19999 0.533366 3.76665C0.533366 4.33332 0.966709 4.7333 1.53338 4.7333ZM4.63335 16.3C4.63335 15.7666 4.20001 15.3 3.63334 15.3H1.50001C0.966677 15.3 0.5 15.7333 0.5 16.3C0.5 16.8333 0.933343 17.2667 1.50001 17.2667H3.63334C4.20001 17.2667 4.63335 16.8333 4.63335 16.3ZM20.5334 -3.05176e-05H3.66671C3.13337 -3.05176e-05 2.6667 0.433313 2.6667 0.99998V2.09999H3.66671C4.56671 2.09999 5.30001 2.83334 5.30001 3.73334C5.30001 4.46667 4.80004 5.09996 4.13337 5.29996C4.80004 5.49996 5.30001 6.13329 5.30001 6.86663C5.30001 7.59996 4.80004 8.2333 4.13337 8.4333C4.80004 8.6333 5.30001 9.26664 5.30001 9.99997C5.30001 10.7333 4.80004 11.3666 4.13337 11.5666C4.80004 11.7666 5.30001 12.4 5.30001 13.1333C5.30001 13.8666 4.80004 14.5 4.13337 14.7C4.80004 14.9 5.30001 15.5333 5.30001 16.2667C5.30001 17.1667 4.56671 17.9 3.66671 17.9H2.6667V19C2.6667 19.5333 3.10004 20 3.66671 20H20.5334C21.0667 20 21.5 19.5666 21.5 19V0.933299C21.5 0.433299 21.0667 -3.05176e-05 20.5334 -3.05176e-05ZM19.2 16.7666C19.2 17.3 18.7667 17.7666 18.2 17.7666H7.5667C7.03337 17.7666 6.6 17.3333 6.6 16.7666V3.23331C6.6 2.69997 7.03337 2.2333 7.5667 2.2333H18.2C18.7334 2.2333 19.2 2.66664 19.2 3.23331V16.7666ZM1.53338 14.1333H3.66671C4.23337 14.1333 4.66666 13.7 4.66666 13.1333C4.66666 12.6 4.23337 12.1333 3.66671 12.1333H1.53338C1.00004 12.1333 0.533366 12.5666 0.533366 13.1333C0.533366 13.7 0.966709 14.1333 1.53338 14.1333Z" fill="#F5FAFC"/>
</svg>
