<svg width="40" height="40" viewBox="0 0 40 40" fill="none" xmlns="http://www.w3.org/2000/svg">
<path d="M30.3387 11.7018C30.3323 11.5731 30.2757 11.4521 30.181 11.3648C30.0863 11.2774 29.9611 11.2307 29.8324 11.2348C27.8316 11.2692 23.8742 10.9349 20.5214 8.11802C20.4324 8.04185 20.3191 8 20.2019 8C20.0847 8 19.9714 8.04185 19.8824 8.11802C16.5296 10.9349 12.5723 11.2692 10.5714 11.2348C10.4427 11.2307 10.3175 11.2774 10.2228 11.3648C10.1281 11.4521 10.0715 11.5731 10.0651 11.7018C9.87337 16.6522 9.98152 22.93 12.1347 25.8796C14.3863 28.9767 19.1007 31.6067 20.2019 32C21.3031 31.6018 26.0175 28.9717 28.2691 25.8796C30.4223 22.93 30.5304 16.6522 30.3387 11.7018ZM24.5378 17.5371L19.5333 23.0332C19.4646 23.107 19.3818 23.1664 19.2897 23.2078C19.1977 23.2491 19.0983 23.2717 18.9975 23.2741H18.9877C18.8892 23.2738 18.7919 23.2537 18.7015 23.2148C18.6111 23.176 18.5295 23.1192 18.4616 23.0479L15.8807 20.413C15.7438 20.2728 15.6682 20.084 15.6705 19.8881C15.6728 19.6922 15.7529 19.5052 15.893 19.3683C16.0332 19.2314 16.222 19.1558 16.4179 19.1581C16.6138 19.1604 16.8008 19.2404 16.9377 19.3806L18.968 21.4601L23.4465 16.5441C23.5787 16.4015 23.7619 16.3168 23.9562 16.3086C24.1505 16.3004 24.3402 16.3691 24.484 16.5C24.6278 16.6309 24.7142 16.8133 24.7243 17.0075C24.7343 17.2017 24.6673 17.392 24.5378 17.5371V17.5371Z" fill="#F5FAFC"/>
</svg>
