<svg width="50" height="50" viewBox="0 0 50 50" fill="none" xmlns="http://www.w3.org/2000/svg">
<path d="M32.3999 35.2849C27.5599 35.2849 23.6299 31.3549 23.6299 26.5149C23.6299 21.6749 27.5599 17.7449 32.3999 17.7449C37.2399 17.7449 41.1699 21.6749 41.1699 26.5149C41.1699 31.3549 37.2299 35.2849 32.3999 35.2849ZM32.3999 19.0348C28.2799 19.0348 24.9199 22.3949 24.9199 26.5149C24.9199 30.6349 28.2799 33.9949 32.3999 33.9949C36.5199 33.9949 39.8799 30.6349 39.8799 26.5149C39.8799 22.3949 36.5199 19.0348 32.3999 19.0348Z" fill="#F5FAFC"/>
<path d="M44.0299 40.0249C43.5499 40.0249 43.07 39.8449 42.71 39.4749L36.8999 33.6648C36.7799 33.5448 36.71 33.3848 36.71 33.2048C36.71 33.0248 36.7799 32.8749 36.8999 32.7449L38.6299 31.0149C38.8799 30.7649 39.2899 30.7649 39.5399 31.0149L45.35 36.825C45.7 37.175 45.8999 37.6448 45.8999 38.1448C45.8999 38.6448 45.71 39.1148 45.35 39.4648C44.99 39.8348 44.5099 40.0249 44.0299 40.0249ZM43.6299 38.5649C43.8599 38.7949 44.22 38.7949 44.45 38.5649C44.56 38.4549 44.6199 38.3148 44.6199 38.1548C44.6199 37.9948 44.56 37.8549 44.45 37.7449L39.1 32.3948L38.2799 33.2148L43.6299 38.5649Z" fill="#F5FAFC"/>
<path d="M16.8202 20.2449C16.6602 20.2449 16.4901 20.1848 16.3601 20.0548L14.8901 18.5848C14.6401 18.3348 14.6401 17.9248 14.8901 17.6748C15.1401 17.4248 15.5502 17.4248 15.8002 17.6748L16.8102 18.6848L19.2902 16.2048C19.5402 15.9548 19.9502 15.9548 20.2002 16.2048C20.4502 16.4548 20.4502 16.8649 20.2002 17.1149L17.2601 20.0548C17.1501 20.1848 16.9902 20.2449 16.8202 20.2449Z" fill="#F5FAFC"/>
<path d="M16.8202 27.5851C16.6602 27.5851 16.4901 27.5249 16.3601 27.3949L14.8901 25.9249C14.6401 25.6749 14.6401 25.265 14.8901 25.015C15.1401 24.765 15.5502 24.765 15.8002 25.015L16.8102 26.025L19.2902 23.5449C19.5402 23.2949 19.9502 23.2949 20.2002 23.5449C20.4502 23.7949 20.4502 24.205 20.2002 24.455L17.2601 27.3949C17.1501 27.5249 16.9902 27.5851 16.8202 27.5851Z" fill="#F5FAFC"/>
<path d="M16.8202 34.925C16.6602 34.925 16.4901 34.8651 16.3601 34.7351L14.8901 33.2651C14.6401 33.0151 14.6401 32.605 14.8901 32.355C15.1401 32.105 15.5502 32.105 15.8002 32.355L16.8102 33.365L19.2902 30.885C19.5402 30.635 19.9502 30.635 20.2002 30.885C20.4502 31.135 20.4502 31.5452 20.2002 31.7952L17.2601 34.7351C17.1501 34.8651 16.9902 34.925 16.8202 34.925Z" fill="#F5FAFC"/>
<path d="M27.9001 20.2451H23.0502C22.6902 20.2451 22.4102 19.9551 22.4102 19.6051C22.4102 19.2451 22.7002 18.9651 23.0502 18.9651H27.9001C28.2601 18.9651 28.5402 19.2551 28.5402 19.6051C28.5502 19.9651 28.2601 20.2451 27.9001 20.2451Z" fill="#F5FAFC"/>
<path d="M24.2701 27.5851H23.0602C22.7002 27.5851 22.4202 27.2949 22.4202 26.9449C22.4202 26.5849 22.7102 26.3049 23.0602 26.3049H24.2701C24.6301 26.3049 24.9102 26.5949 24.9102 26.9449C24.9202 27.2949 24.6301 27.5851 24.2701 27.5851Z" fill="#F5FAFC"/>
<path d="M30.0001 34.9248H23.0602C22.7002 34.9248 22.4202 34.6349 22.4202 34.2849C22.4202 33.9349 22.7102 33.6448 23.0602 33.6448H30.0001C30.3601 33.6448 30.6401 33.9349 30.6401 34.2849C30.6401 34.6349 30.3501 34.9248 30.0001 34.9248Z" fill="#F5FAFC"/>
<path d="M37.12 11.5751H32.41C32.05 11.5751 31.77 11.285 31.77 10.935V6.23509C31.77 5.97509 31.93 5.73512 32.17 5.64512C32.41 5.54512 32.69 5.60502 32.87 5.78502L37.5801 10.4851C37.7601 10.6651 37.8201 10.945 37.7201 11.185C37.6101 11.415 37.38 11.5751 37.12 11.5751ZM33.0601 10.285H35.5701L33.0601 7.77513V10.285Z" fill="#F5FAFC"/>
<path d="M35.9401 44.4049H9.64001C9.28001 44.4049 9 44.115 9 43.765V7.41492C9 6.40492 9.82007 5.59497 10.8201 5.59497H32.41C32.58 5.59497 32.74 5.66491 32.87 5.78491L37.5801 10.485C37.7001 10.605 37.77 10.7649 37.77 10.9449V19.9149C37.77 20.2749 37.48 20.5549 37.13 20.5549C36.78 20.5549 36.49 20.2649 36.49 19.9149V11.215L32.16 6.88501H10.8401C10.5401 6.88501 10.3 7.12493 10.3 7.42493V43.1349H35.9501C36.2501 43.1349 36.49 42.8948 36.49 42.5948V33.3351C36.49 32.9751 36.78 32.6949 37.13 32.6949C37.48 32.6949 37.77 32.9851 37.77 33.3351V42.5948C37.76 43.5849 36.9401 44.4049 35.9401 44.4049Z" fill="#F5FAFC"/>
</svg>
