<svg width="40" height="40" viewBox="0 0 40 40" fill="none" xmlns="http://www.w3.org/2000/svg">
<path d="M18.0785 7.83359L10.0927 16.6895C9.14657 17.7113 9.22228 19.3387 10.282 20.2848C11.3039 21.231 12.9313 21.1553 13.8774 20.0956L17.0945 16.5381L16.3754 28.8758C16.3754 28.9515 16.3754 29.0272 16.3375 29.1029L16.3375 29.5192C16.4132 31.4493 18.0406 33.001 20.0086 33.001C21.9767 33.001 23.5663 31.4493 23.6798 29.5192L23.6798 29.065C23.6798 28.9893 23.6798 28.9515 23.6798 28.9137L22.9608 16.5381L26.1777 20.0956C27.1239 21.1174 28.7135 21.231 29.7353 20.2848C30.3031 19.7928 30.568 19.1116 30.568 18.3925C30.568 17.787 30.3409 17.1815 29.9246 16.6895L21.9389 7.83359C21.4469 7.30375 20.7656 7.00098 20.0465 7.00098C19.2139 7.00098 18.5326 7.30375 18.0785 7.83359Z" fill="white"/>
</svg>
