<svg width="40" height="40" viewBox="0 0 40 40" fill="none" xmlns="http://www.w3.org/2000/svg">
<path d="M7.08243 13.5286C7.04122 13.4881 7.0412 13.488 7 13.4475V26.309C7.0412 26.2685 7.04122 26.2684 7.08243 26.2279L13.7575 19.858L7.08243 13.5286ZM15.1585 18.5596L16.5594 19.8985L17.9192 21.1969C18.4961 21.7243 19.2789 22.0489 20.103 22.0489C20.9271 22.0489 21.71 21.7649 22.2868 21.1969L23.4406 20.1014L24.8415 18.7625L31.7226 12.2303C32.0522 11.9057 32.2171 11.6623 32.2995 11.5H7.86532C7.94773 11.6623 8.11255 11.8245 8.31857 12.0274L15.1585 18.5596ZM24.8003 21.3998L23.4406 22.6981C22.4929 23.5907 21.2568 24.037 20.0618 24.037C18.8669 24.037 17.6307 23.5907 16.683 22.6981L15.1173 21.2374L8.23614 27.7697C7.90651 28.0942 7.74169 28.3783 7.65928 28.5H32.1347C32.0523 28.3377 31.8875 28.1754 31.6814 27.9725L24.8003 21.3998ZM32.9176 13.7315L26.2425 20.1014L32.9176 26.4714C32.9588 26.5119 32.9588 26.5119 33 26.5525V13.6909C32.9588 13.6909 32.9176 13.6909 32.9176 13.7315Z" fill="#F5FAFC"/>
</svg>
