<svg width="40" height="41" viewBox="0 0 40 41" fill="none" xmlns="http://www.w3.org/2000/svg">
<path fill-rule="evenodd" clip-rule="evenodd" d="M32 20.0012C32 13.3737 26.6274 8.00116 20 8.00116C13.3726 8.00116 8 13.3737 8 20.0012C8 26.6286 13.3726 32.0012 20 32.0012C26.6274 32.0012 32 26.6286 32 20.0012ZM29 20.0012C29 15.0306 24.9706 11.0012 20 11.0012C15.0294 11.0012 11 15.0306 11 20.0012C11 24.9717 15.0294 29.0012 20 29.0012C24.9706 29.0012 29 24.9717 29 20.0012Z" fill="#F5FAFC"/>
<path d="M24.25 19.5681C24.5833 19.7605 24.5833 20.2417 24.25 20.4341L18.25 23.8982C17.9167 24.0907 17.5 23.8501 17.5 23.4652L17.5 16.537C17.5 16.1521 17.9167 15.9115 18.25 16.104L24.25 19.5681Z" fill="#F5FAFC"/>
</svg>
