<svg width="40" height="40" viewBox="0 0 40 40" fill="none" xmlns="http://www.w3.org/2000/svg">
<path d="M10.9972 23.661C12.9242 24.9907 15.436 24.7622 17.1059 23.2661L21.4582 26.2694C20.652 28.3615 21.3297 30.791 23.2566 32.1207C25.5158 33.6797 28.604 33.1133 30.163 30.8541C31.7221 28.5948 31.1558 25.5065 28.8966 23.9475C26.9696 22.6178 24.4578 22.8463 22.7879 24.3424L18.4356 21.3391C18.845 20.2483 18.8637 19.0841 18.5225 18.015L22.6724 15.4836C22.882 15.6773 23.1249 15.894 23.3574 16.0545C25.6166 17.6135 28.7049 17.047 30.264 14.7878C31.823 12.5285 31.2567 9.4402 28.9975 7.88122C26.7383 6.32225 23.65 6.8887 22.091 9.14796C21.1739 10.4769 21.0027 12.0754 21.495 13.4941L17.3451 16.0254C17.1355 15.8317 16.8927 15.615 16.6601 15.4545C14.4009 13.8956 11.3126 14.462 9.75363 16.7213C8.17168 19.0138 8.73801 22.102 10.9972 23.661Z" fill="white"/>
</svg>
