<svg width="55" height="24" viewBox="0 0 55 24" fill="none" xmlns="http://www.w3.org/2000/svg">
<path d="M43 22H13V24H43V22Z" fill="#F5FAFC"/>
<path d="M43 4H13V6H43V4Z" fill="#F5FAFC"/>
<path d="M13.4403 17H11.0743V13.598L8.24628 16.72H6.48228L3.57028 13.598V17H1.24628V10.658H3.50028L7.40628 14.886L11.1583 10.658H13.4403V17ZM17.4814 14.522C17.4907 14.6247 17.514 14.7273 17.5514 14.83C17.598 14.9233 17.6634 15.0027 17.7474 15.068C17.878 15.1707 18.06 15.2407 18.2934 15.278C18.536 15.3153 18.872 15.334 19.3014 15.334H25.0694V17H18.8954C18.1674 17 17.556 16.93 17.0614 16.79C16.5667 16.6407 16.1607 16.412 15.8434 16.104C15.302 15.5813 15.0314 14.816 15.0314 13.808C15.0314 13.276 15.1154 12.8327 15.2834 12.478C15.4514 12.114 15.6707 11.8107 15.9414 11.568C16.296 11.2413 16.7627 11.008 17.3414 10.868C17.9294 10.728 18.592 10.658 19.3294 10.658H21.2334C22.008 10.658 22.68 10.7187 23.2494 10.84C23.8187 10.9613 24.2994 11.1993 24.6914 11.554C24.9714 11.806 25.1907 12.128 25.3494 12.52C25.5174 12.912 25.6014 13.374 25.6014 13.906C25.6014 14.0087 25.5967 14.1207 25.5874 14.242C25.578 14.354 25.564 14.4473 25.5454 14.522H17.4814ZM23.2494 13.136C23.24 12.8467 23.1187 12.632 22.8854 12.492C22.7547 12.408 22.5727 12.3567 22.3394 12.338C22.1154 12.31 21.84 12.296 21.5134 12.296H19.2314C18.9047 12.296 18.6247 12.31 18.3914 12.338C18.1674 12.3567 17.99 12.408 17.8594 12.492C17.626 12.632 17.5047 12.8467 17.4954 13.136H23.2494ZM35.2442 12.954V10.658H37.6102V17H35.2442V14.676H29.6162V17H27.2502V10.658H29.6162V12.954H35.2442ZM39.6232 10.658H41.9892V12.954H43.4172C43.5386 12.4127 43.7952 11.9553 44.1872 11.582C44.5326 11.246 44.9666 11.008 45.4892 10.868C46.0212 10.728 46.6652 10.658 47.4212 10.658H50.0672C50.8232 10.658 51.4626 10.728 51.9852 10.868C52.5172 11.008 52.9559 11.246 53.3012 11.582C53.5719 11.8527 53.7819 12.1747 53.9312 12.548C54.0899 12.9213 54.1692 13.3413 54.1692 13.808C54.1692 14.284 54.0946 14.7133 53.9452 15.096C53.7959 15.4693 53.5859 15.7913 53.3152 16.062C52.9699 16.398 52.5312 16.6407 51.9992 16.79C51.4766 16.93 50.8372 17 50.0812 17H47.4072C46.6512 17 46.0072 16.93 45.4752 16.79C44.9526 16.6407 44.5186 16.398 44.1732 16.062C43.7999 15.7167 43.5479 15.2547 43.4172 14.676H41.9892V17H39.6232V10.658ZM49.9272 15.264C50.3379 15.264 50.6412 15.2453 50.8372 15.208C51.0426 15.1613 51.2246 15.0633 51.3832 14.914C51.6352 14.6807 51.7612 14.3213 51.7612 13.836C51.7612 13.584 51.7286 13.374 51.6632 13.206C51.6072 13.0287 51.5139 12.8793 51.3832 12.758C51.2246 12.6087 51.0052 12.5107 50.7252 12.464C50.4546 12.4173 50.1092 12.394 49.6892 12.394H47.7992C47.3792 12.394 47.0292 12.4173 46.7492 12.464C46.4786 12.5107 46.2639 12.6087 46.1052 12.758C45.9746 12.8793 45.8766 13.0287 45.8112 13.206C45.7552 13.374 45.7272 13.584 45.7272 13.836C45.7272 14.3213 45.8532 14.6807 46.1052 14.914C46.2639 15.0633 46.5206 15.1613 46.8752 15.208C47.2392 15.2453 47.6266 15.264 48.0372 15.264H49.9272Z" fill="#F5FAFC"/>
</svg>
