<svg width="41" height="40" viewBox="0 0 41 40" fill="none" xmlns="http://www.w3.org/2000/svg">
<path d="M20.854 13.4804C20.2998 13.1219 19.3762 13.1219 18.822 13.4804L10.4163 18.8571C9.86212 19.2156 9.40027 20.0221 9.40027 20.6943V29.8349C9.40027 30.4622 9.95453 30.9999 10.6011 30.9999H14.4806C15.1734 30.9999 15.6814 30.4622 15.6814 29.8349V23.4723C15.6814 22.845 16.2356 22.3074 16.8822 22.3074H23.1171C23.7637 22.3074 24.3179 22.845 24.3179 23.4723V29.8349C24.3179 30.4622 24.8722 30.9999 25.5187 30.9999H29.3982C30.0448 30.9999 30.599 30.4622 30.599 29.8349V20.9184C30.599 20.2911 30.1372 19.4397 29.583 19.0813L20.854 13.4804Z" fill="#F5FAFC"/>
<path d="M31.6153 16.5276C31.0611 16.1692 30.5993 15.3626 30.5993 14.6905V12.8087C30.5993 12.1814 30.0451 11.6436 29.3985 11.6436H29.2138C28.5672 11.6436 28.0129 12.1814 28.0129 12.8087V12.9878C28.0129 13.6151 27.5511 13.8839 26.9969 13.5255L20.9467 9.62723C20.3924 9.26877 19.8845 9 19.8383 9C19.7921 9 19.284 9.31358 18.7298 9.62723L7.69167 16.7069C7.13745 17.0654 6.9065 17.6926 7.22979 18.1406C7.5069 18.5887 8.19972 18.6337 8.80013 18.2752L18.8684 11.8229C19.4226 11.4644 20.3463 11.4644 20.9005 11.8229L31.3845 18.5887C31.9387 18.9472 32.6314 18.8576 32.9547 18.4543C33.2318 18.0062 33.0471 17.3789 32.4929 17.0205L31.6153 16.5276Z" fill="#F5FAFC"/>
</svg>
