<svg width="50" height="50" viewBox="0 0 50 50" fill="none" xmlns="http://www.w3.org/2000/svg">
<path d="M31.535 25.1501C31.375 25.1501 31.2249 25.0901 31.0949 24.9801C30.8349 24.7401 30.8149 24.3301 31.0549 24.0701L39.9549 14.4201C40.1949 14.1601 40.6049 14.1401 40.8649 14.3801C41.1249 14.6201 41.145 15.0301 40.905 15.2901L32.0049 24.9401C31.8849 25.0801 31.715 25.1501 31.535 25.1501Z" fill="#F5FAFC"/>
<path d="M27.125 25.9001C27.015 25.9001 26.9049 25.87 26.8049 25.81L20.5649 22.2001C20.2549 22.0201 20.1549 21.6301 20.3249 21.3201C20.5049 21.0101 20.8949 20.9101 21.2049 21.0801L27.4449 24.69C27.7549 24.87 27.8549 25.2601 27.6849 25.5701C27.5649 25.7801 27.345 25.9001 27.125 25.9001Z" fill="#F5FAFC"/>
<path d="M5.6849 32.87C5.5149 32.87 5.34493 32.8001 5.21493 32.6701C4.97493 32.4101 4.98495 32.0001 5.23495 31.7601L15.8249 21.7301C16.0849 21.4901 16.4949 21.5001 16.7349 21.7501C16.9749 22.0101 16.9649 22.4201 16.7149 22.6601L6.12496 32.6901C6.00496 32.8201 5.8449 32.87 5.6849 32.87Z" fill="#F5FAFC"/>
<path d="M18.3751 23.5601C16.5351 23.5601 15.0352 22.0602 15.0352 20.2202C15.0352 18.3802 16.5351 16.8801 18.3751 16.8801C20.2151 16.8801 21.7151 18.3802 21.7151 20.2202C21.7251 22.0602 20.2251 23.5601 18.3751 23.5601ZM18.3751 18.1602C17.2451 18.1602 16.3251 19.0801 16.3251 20.2101C16.3251 21.3401 17.2451 22.2701 18.3751 22.2701C19.5051 22.2701 20.4351 21.3501 20.4351 20.2101C20.4351 19.0701 19.5151 18.1602 18.3751 18.1602Z" fill="#F5FAFC"/>
<path d="M29.5551 30.0301C27.7151 30.0301 26.2151 28.5301 26.2151 26.6901C26.2151 24.8501 27.7151 23.3501 29.5551 23.3501C31.3951 23.3501 32.8951 24.8501 32.8951 26.6901C32.8951 28.5301 31.3951 30.0301 29.5551 30.0301ZM29.5551 24.6301C28.4251 24.6301 27.5051 25.5501 27.5051 26.6901C27.5051 27.8301 28.4251 28.7501 29.5551 28.7501C30.6851 28.7501 31.6151 27.8301 31.6151 26.6901C31.6151 25.5501 30.6851 24.6301 29.5551 24.6301Z" fill="#F5FAFC"/>
<path d="M42.405 16.0701C40.565 16.0701 39.0649 14.5702 39.0649 12.7302C39.0649 10.8902 40.565 9.39014 42.405 9.39014C44.245 9.39014 45.745 10.8902 45.745 12.7302C45.745 14.5702 44.245 16.0701 42.405 16.0701ZM42.405 10.6702C41.275 10.6702 40.345 11.5902 40.345 12.7302C40.345 13.8602 41.265 14.7802 42.405 14.7802C43.535 14.7802 44.455 13.8602 44.455 12.7302C44.455 11.5902 43.535 10.6702 42.405 10.6702Z" fill="#F5FAFC"/>
<path d="M47.6052 38.8401H5.25525C4.89525 38.8401 4.61523 38.5501 4.61523 38.2001V8.94006C4.61523 8.58006 4.90525 8.30005 5.25525 8.30005C5.61525 8.30005 5.89526 8.59006 5.89526 8.94006V37.55H47.5952C47.9552 37.55 48.2352 37.8401 48.2352 38.1901C48.2352 38.5401 47.9552 38.8401 47.6052 38.8401Z" fill="#F5FAFC"/>
<path d="M8.11511 12.44C7.95511 12.44 7.78515 12.38 7.65515 12.25L5.25513 9.85004L2.8551 12.25C2.6051 12.5 2.19507 12.5 1.94507 12.25C1.69507 12 1.69507 11.59 1.94507 11.34L4.80505 8.48005C5.04505 8.24005 5.47509 8.24005 5.71509 8.48005L8.57507 11.34C8.82507 11.59 8.82507 12 8.57507 12.25C8.44507 12.38 8.27511 12.44 8.11511 12.44Z" fill="#F5FAFC"/>
<path d="M44.7451 41.7001C44.5851 41.7001 44.4152 41.6401 44.2852 41.5101C44.0352 41.2601 44.0352 40.8502 44.2852 40.6002L46.6851 38.2001L44.2852 35.8001C44.0352 35.5501 44.0352 35.1401 44.2852 34.8901C44.5352 34.6401 44.9451 34.6401 45.1951 34.8901L48.0551 37.7501C48.3051 38.0001 48.3051 38.4102 48.0551 38.6602L45.1951 41.5201C45.0751 41.6401 44.9151 41.7001 44.7451 41.7001Z" fill="#F5FAFC"/>
</svg>
