<svg width="40" height="40" viewBox="0 0 40 40" fill="none" xmlns="http://www.w3.org/2000/svg">
<path d="M21.7 17.2667C22.6667 17.2667 23.4333 16.5 23.4333 15.5333C23.4333 14.5667 22.6667 13.8 21.7 13.8C20.7334 13.8 19.9667 14.5667 19.9667 15.5333C19.9667 16.5 20.7334 17.2667 21.7 17.2667ZM22.9667 17.9H18.6667L18.6333 19.1667H20.0334V24.5H19.1V25.9H24.3333V24.5H22.9334V17.9H22.9667ZM10.0334 17.8667H12.1667C12.7334 17.8667 13.1667 17.4334 13.1667 16.9C13.1667 16.3667 12.7334 15.9 12.1667 15.9H10.0334C9.50004 15.9 9.03337 16.3334 9.03337 16.9C9.03337 17.4334 9.46671 17.8667 10.0334 17.8667ZM10.0334 21H12.1667C12.7334 21 13.1667 20.5667 13.1667 20.0334C13.1667 19.5 12.7334 19.0334 12.1667 19.0334H10.0334C9.50004 19.0334 9.03337 19.4667 9.03337 20.0334C9.03337 20.5667 9.46671 21 10.0334 21ZM10.0334 14.7333H12.1667C12.7334 14.7333 13.1667 14.3 13.1667 13.7667C13.1667 13.2333 12.7334 12.7667 12.1667 12.7667H10.0334C9.50004 12.7667 9.03337 13.2 9.03337 13.7667C9.03337 14.3333 9.46671 14.7333 10.0334 14.7333ZM13.1333 26.3C13.1333 25.7667 12.7 25.3 12.1333 25.3H10C9.46668 25.3 9 25.7333 9 26.3C9 26.8333 9.43334 27.2667 10 27.2667H12.1333C12.7 27.2667 13.1333 26.8333 13.1333 26.3ZM29.0334 10H12.1667C11.6334 10 11.1667 10.4333 11.1667 11V12.1H12.1667C13.0667 12.1 13.8 12.8334 13.8 13.7334C13.8 14.4667 13.3 15.1 12.6334 15.3C13.3 15.5 13.8 16.1333 13.8 16.8667C13.8 17.6 13.3 18.2333 12.6334 18.4333C13.3 18.6333 13.8 19.2667 13.8 20C13.8 20.7333 13.3 21.3667 12.6334 21.5667C13.3 21.7667 13.8 22.4 13.8 23.1333C13.8 23.8667 13.3 24.5 12.6334 24.7C13.3 24.9 13.8 25.5333 13.8 26.2667C13.8 27.1667 13.0667 27.9 12.1667 27.9H11.1667V29C11.1667 29.5333 11.6 30 12.1667 30H29.0334C29.5667 30 30 29.5667 30 29V10.9333C30 10.4333 29.5667 10 29.0334 10ZM27.7 26.7667C27.7 27.3 27.2667 27.7667 26.7 27.7667H16.0667C15.5334 27.7667 15.1 27.3333 15.1 26.7667V13.2333C15.1 12.7 15.5334 12.2333 16.0667 12.2333H26.7C27.2334 12.2333 27.7 12.6667 27.7 13.2333V26.7667ZM10.0334 24.1334H12.1667C12.7334 24.1334 13.1667 23.7 13.1667 23.1333C13.1667 22.6 12.7334 22.1333 12.1667 22.1333H10.0334C9.50004 22.1333 9.03337 22.5667 9.03337 23.1333C9.03337 23.7 9.46671 24.1334 10.0334 24.1334Z" fill="#F5FAFC"/>
</svg>
