<svg width="50" height="50" viewBox="0 0 50 50" fill="none" xmlns="http://www.w3.org/2000/svg">
<path d="M8.10991 37.405C7.91991 37.405 7.72991 37.325 7.60991 37.165C5.20991 34.165 5.6299 29.4851 8.5599 26.7251C10.0399 25.3251 11.9099 24.635 13.8299 24.765C15.6199 24.885 17.2399 25.745 18.3799 27.165C18.5999 27.445 18.5599 27.8451 18.2799 28.0751C17.9999 28.2951 17.5999 28.2551 17.3699 27.9751C16.4599 26.8351 15.1699 26.1551 13.7399 26.0551C12.1899 25.9451 10.6599 26.515 9.4499 27.665C6.9999 29.975 6.6199 33.8751 8.6199 36.3551C8.8399 36.6351 8.79991 37.035 8.51991 37.265C8.38991 37.355 8.24991 37.405 8.10991 37.405Z" fill="#F5FAFC"/>
<path d="M41.7999 32.745C41.4799 32.745 41.1999 32.5049 41.1599 32.1749C40.8499 29.6249 39.2499 27.4649 36.9899 26.5449C34.7499 25.6349 32.2699 26.1149 30.5099 27.7949C30.2499 28.0449 29.8399 28.0349 29.5999 27.7749C29.3499 27.5149 29.3599 27.105 29.6199 26.865C31.7499 24.825 34.7599 24.255 37.4799 25.355C40.1699 26.445 42.0799 29.0049 42.4399 32.0249C42.4799 32.3749 42.2299 32.695 41.8799 32.745C41.8499 32.745 41.8299 32.745 41.7999 32.745Z" fill="#F5FAFC"/>
<path d="M17.1001 26.215C16.9801 26.215 16.8601 26.185 16.7601 26.115C16.4601 25.925 16.3701 25.525 16.5601 25.225C17.3901 23.915 18.5101 22.815 19.8201 22.065C20.0701 21.925 20.3301 21.785 20.5801 21.665C20.9001 21.515 21.2901 21.655 21.4401 21.975C21.5901 22.295 21.4501 22.685 21.1301 22.835C20.9101 22.935 20.6901 23.055 20.4701 23.185C19.3301 23.845 18.3801 24.765 17.6501 25.925C17.5301 26.105 17.3201 26.215 17.1001 26.215Z" fill="#F5FAFC"/>
<path d="M31.69 26.825C31.45 26.825 31.22 26.695 31.11 26.465C30.4 25.025 29.34 23.8651 28.06 23.1051C27.75 22.9251 27.65 22.5251 27.84 22.2251C28.02 21.9151 28.42 21.8151 28.72 22.0051C30.22 22.8951 31.44 24.245 32.27 25.905C32.43 26.225 32.3 26.615 31.98 26.765C31.88 26.805 31.79 26.825 31.69 26.825Z" fill="#F5FAFC"/>
<path d="M40.2401 43.645H25.1601C23.5801 43.645 22.0501 42.925 20.9801 41.675C20.7501 41.405 20.7801 40.995 21.0501 40.765C21.3201 40.535 21.7301 40.565 21.9601 40.835C22.8001 41.815 23.9401 42.355 25.1701 42.355H40.2501C42.6801 42.355 44.6501 40.195 44.6501 37.535C44.6501 36.225 44.0401 34.875 43.0201 33.935C42.0801 33.065 40.89 32.6451 39.68 32.7451C39.33 32.7751 39.0101 32.505 38.9901 32.155C38.9601 31.805 39.2301 31.485 39.5801 31.465C41.1501 31.335 42.6901 31.8851 43.8901 32.9951C45.1701 34.1751 45.9401 35.875 45.9401 37.545C45.9301 40.905 43.3801 43.645 40.2401 43.645Z" fill="#F5FAFC"/>
<path d="M23.69 46.705H10.17C7.32 46.705 5 44.2149 5 41.1549C5 38.2849 7 35.9149 9.66 35.6349C10.01 35.5949 10.33 35.855 10.37 36.205C10.41 36.555 10.15 36.875 9.8 36.915C7.8 37.125 6.28999 38.9449 6.28999 41.1549C6.28999 43.5049 8.03 45.415 10.17 45.415H23.69C25.2 45.415 26.58 44.445 27.22 42.935C27.36 42.605 27.74 42.455 28.06 42.595C28.39 42.735 28.54 43.115 28.4 43.435C27.57 45.415 25.72 46.705 23.69 46.705Z" fill="#F5FAFC"/>
<path d="M33.8801 37.625C33.8601 37.625 33.8501 37.625 33.8301 37.625C33.4801 37.595 33.2101 37.2849 33.2401 36.9349C33.4201 34.5549 35.6001 33.6349 35.7001 33.5949C36.0301 33.4649 36.4101 33.6149 36.5401 33.9449C36.6701 34.2749 36.5201 34.6449 36.1901 34.7849C36.1201 34.8149 34.6501 35.4549 34.5301 37.0349C34.4901 37.3649 34.2101 37.625 33.8801 37.625Z" fill="#F5FAFC"/>
<path d="M12.2201 34.8451C11.8601 34.8451 11.5801 34.5551 11.5801 34.2051C11.5801 31.5551 13.8401 30.5851 15.0301 30.4451C15.3801 30.4051 15.7001 30.6552 15.7501 31.0052C15.7901 31.3552 15.5401 31.6751 15.1901 31.7251C14.9501 31.7551 12.8701 32.0851 12.8701 34.2151C12.8601 34.5551 12.5701 34.8451 12.2201 34.8451Z" fill="#F5FAFC"/>
<path d="M22.0899 36.3651C21.2399 36.3651 20.5399 36.1151 19.9999 35.6151C18.4499 34.1751 18.9899 31.2351 19.0099 31.1051C19.0799 30.7551 19.4099 30.5251 19.7599 30.5951C20.1099 30.6651 20.3399 30.9951 20.2699 31.3451C20.1499 32.0051 20.0199 33.885 20.8699 34.675C21.3499 35.115 22.1299 35.205 23.2099 34.915C23.5499 34.825 23.9099 35.0251 23.9999 35.3751C24.0899 35.7151 23.8899 36.075 23.5399 36.165C23.0299 36.295 22.5399 36.3651 22.0899 36.3651Z" fill="#F5FAFC"/>
<path d="M19.1199 38.5448C18.9999 38.5448 18.8899 38.5148 18.7799 38.4448C18.4799 38.2548 18.3799 37.8648 18.5699 37.5548C18.6599 37.4148 20.7399 34.1148 23.9899 35.0448C24.3299 35.1448 24.5299 35.4949 24.4299 35.8449C24.3299 36.1849 23.9699 36.3848 23.6299 36.2848C21.3099 35.6148 19.6799 38.2049 19.6599 38.2349C19.5499 38.4349 19.3399 38.5448 19.1199 38.5448Z" fill="#F5FAFC"/>
<path d="M13.62 42.595C12.53 42.595 11.78 42.3249 11.34 41.7649C10.75 41.0149 11.05 40.145 11.08 40.045C11.2 39.715 11.57 39.5449 11.91 39.6649C12.24 39.7849 12.41 40.155 12.29 40.485C12.28 40.505 12.2 40.785 12.35 40.975C12.44 41.095 12.88 41.455 14.51 41.245C14.86 41.195 15.18 41.455 15.23 41.805C15.27 42.155 15.02 42.4749 14.67 42.5249C14.29 42.5649 13.94 42.595 13.62 42.595Z" fill="#F5FAFC"/>
<path d="M28.2101 35.355C27.6901 35.355 27.0601 35.1849 26.3701 34.6449C26.0901 34.4249 26.0401 34.025 26.2601 33.745C26.4801 33.465 26.8801 33.4149 27.1601 33.6349C27.9201 34.2349 28.4001 34.0649 28.5601 34.0149C29.9201 33.5449 30.9401 30.6349 31.1901 29.6549C31.2801 29.3149 31.6301 29.105 31.9701 29.185C32.3101 29.275 32.5201 29.625 32.4401 29.965C32.3201 30.425 31.2401 34.455 28.9801 35.225C28.7701 35.305 28.5101 35.355 28.2101 35.355Z" fill="#F5FAFC"/>
<path d="M24.5899 30.5049C22.9599 30.5049 21.6399 29.2349 21.5899 27.6049L21.5799 27.2748C21.4799 24.6148 20.6299 21.9949 19.1099 19.7149C18.2199 18.3849 17.8499 16.8349 18.0299 15.2349C18.3699 12.1549 20.8599 9.66486 23.9399 9.32486C25.8499 9.11486 27.7699 9.7249 29.1899 10.9949C30.6099 12.2649 31.4299 14.0949 31.4299 16.0049C31.4299 17.3849 31.0099 18.7149 30.2299 19.8449C28.6099 22.1649 27.7099 24.8449 27.6099 27.6149C27.5399 29.2249 26.2199 30.5049 24.5899 30.5049ZM24.6999 10.5648C24.4899 10.5648 24.2799 10.5749 24.0699 10.5949C21.5799 10.8749 19.5699 12.8749 19.2899 15.3749C19.1499 16.6749 19.4499 17.9249 20.1599 19.0049C21.8199 21.4849 22.7499 24.3349 22.8499 27.2349L22.8599 27.5648C22.8899 28.4948 23.6499 29.2249 24.5799 29.2249C25.5099 29.2249 26.2599 28.4948 26.2999 27.5648C26.4099 24.5448 27.3899 21.6249 29.1499 19.1049C29.7899 18.1949 30.1199 17.1249 30.1199 16.0049C30.1199 14.4649 29.4599 12.9849 28.3099 11.9549C27.3099 11.0449 26.0499 10.5648 24.6999 10.5648Z" fill="#F5FAFC"/>
<path d="M24.6098 25.765C22.9698 25.765 21.8598 25.1451 21.7898 25.1051C21.4798 24.9251 21.3698 24.5351 21.5498 24.2251C21.7298 23.9151 22.1198 23.8051 22.4298 23.9851C22.5198 24.0351 24.4598 25.0851 26.8998 23.9551C27.2198 23.8051 27.6098 23.945 27.7498 24.275C27.8998 24.595 27.7598 24.9851 27.4298 25.1251C26.3998 25.6051 25.4398 25.765 24.6098 25.765Z" fill="#F5FAFC"/>
<path d="M24.7001 6.67493C24.3401 6.67493 24.0601 6.38491 24.0601 6.03491V3.93494C24.0601 3.57494 24.3501 3.29492 24.7001 3.29492C25.0501 3.29492 25.3401 3.58494 25.3401 3.93494V6.03491C25.3401 6.38491 25.0501 6.67493 24.7001 6.67493Z" fill="#F5FAFC"/>
<path d="M18.31 8.99494C18.13 8.99494 17.94 8.91483 17.82 8.76483L16.47 7.15485C16.24 6.88485 16.28 6.47494 16.55 6.24494C16.82 6.01494 17.23 6.05489 17.46 6.32489L18.81 7.93488C19.04 8.20488 19 8.61491 18.73 8.84491C18.6 8.94491 18.45 8.99494 18.31 8.99494Z" fill="#F5FAFC"/>
<path d="M14.9099 14.885C14.8699 14.885 14.8399 14.8851 14.7999 14.8751L12.7299 14.5051C12.3799 14.4451 12.1499 14.1051 12.2099 13.7551C12.2699 13.4051 12.6099 13.1751 12.9599 13.2351L15.0299 13.6051C15.3799 13.6651 15.6099 14.0051 15.5499 14.3551C15.4899 14.6651 15.2099 14.885 14.9099 14.885Z" fill="#F5FAFC"/>
<path d="M14.27 22.635C14.05 22.635 13.83 22.5151 13.71 22.3151C13.53 22.0051 13.64 21.6151 13.95 21.4351L15.77 20.385C16.08 20.205 16.47 20.3151 16.65 20.6251C16.83 20.9351 16.72 21.3251 16.41 21.5051L14.59 22.5551C14.49 22.6051 14.38 22.635 14.27 22.635Z" fill="#F5FAFC"/>
<path d="M35.13 22.6349C35.02 22.6349 34.91 22.6049 34.81 22.5449L32.99 21.495C32.68 21.315 32.58 20.925 32.75 20.615C32.93 20.305 33.32 20.205 33.63 20.375L35.45 21.4249C35.76 21.6049 35.86 21.9949 35.69 22.3049C35.57 22.5249 35.35 22.6349 35.13 22.6349Z" fill="#F5FAFC"/>
<path d="M34.4899 14.885C34.1799 14.885 33.9098 14.6651 33.8598 14.3551C33.7998 14.0051 34.0299 13.6751 34.3799 13.6051L36.4498 13.2351C36.7998 13.1751 37.1298 13.4051 37.1998 13.7551C37.2598 14.1051 37.0298 14.4351 36.6798 14.5051L34.6098 14.8751C34.5598 14.8851 34.5299 14.885 34.4899 14.885Z" fill="#F5FAFC"/>
<path d="M31.0899 8.99494C30.9399 8.99494 30.7999 8.94491 30.6799 8.84491C30.4099 8.61491 30.3699 8.20488 30.5999 7.93488L31.9499 6.32489C32.1799 6.05489 32.5899 6.01494 32.8599 6.24494C33.1299 6.47494 33.1699 6.87485 32.9399 7.15485L31.5899 8.76483C31.4499 8.91483 31.2699 8.99494 31.0899 8.99494Z" fill="#F5FAFC"/>
</svg>
