<svg width="50" height="50" viewBox="0 0 50 50" fill="none" xmlns="http://www.w3.org/2000/svg">
<path d="M34.3448 41.9101C27.4548 41.9101 21.3149 38.7701 19.4049 34.2801C19.2649 33.9501 19.4149 33.57 19.7449 33.44C20.0749 33.3 20.4548 33.4501 20.5848 33.7801C22.2948 37.8101 27.9548 40.62 34.3348 40.62C37.4748 40.62 40.4648 39.9601 42.9648 38.7101C43.1048 38.6401 43.2649 38.6201 43.4149 38.6601L47.7549 39.7601L46.8548 36.18C46.8048 35.98 46.8548 35.78 46.9748 35.62C48.0648 34.27 48.6149 32.82 48.6149 31.3C48.6149 27.14 44.3249 23.4401 38.1749 22.3201C37.8249 22.2601 37.5949 21.9201 37.6549 21.5701C37.7149 21.2201 38.0549 20.99 38.4049 21.05C45.1749 22.29 49.9049 26.5 49.9049 31.3C49.9049 33 49.3049 34.68 48.1749 36.18L49.2649 40.5C49.3249 40.72 49.2548 40.95 49.0948 41.11C48.9348 41.27 48.7049 41.3401 48.4849 41.2801L43.3249 39.9801C40.6949 41.2401 37.5948 41.9101 34.3448 41.9101Z" fill="#F5FAFC"/>
<path d="M19.4351 34.3701C15.3651 34.3701 11.4751 33.5301 8.18506 31.9301L1.66504 33.5801C1.44504 33.6401 1.21505 33.5701 1.05505 33.4101C0.895054 33.2501 0.83501 33.02 0.88501 32.8L2.27502 27.3101C0.845024 25.4501 0.0949707 23.3501 0.0949707 21.2301C0.0949707 13.9801 8.77506 8.09009 19.4351 8.09009C30.1051 8.09009 38.775 13.9801 38.775 21.2301C38.775 28.4701 30.0951 34.3701 19.4351 34.3701ZM8.255 30.6001C8.35501 30.6001 8.45504 30.6201 8.54504 30.6701C11.705 32.2501 15.4651 33.0801 19.4351 33.0801C29.3951 33.0801 37.495 27.7601 37.495 21.2301C37.495 14.6901 29.3951 9.38007 19.4351 9.38007C9.47506 9.38007 1.375 14.7001 1.375 21.2301C1.375 23.1801 2.07497 25.0401 3.46497 26.7501C3.59497 26.9101 3.63496 27.1201 3.58496 27.3101L2.38501 32.0601L8.08496 30.6201C8.14496 30.6101 8.205 30.6001 8.255 30.6001Z" fill="#F5FAFC"/>
<path d="M19.4349 24.18C17.8049 24.18 16.4849 22.86 16.4849 21.23C16.4849 19.6 17.8049 18.28 19.4349 18.28C21.0649 18.28 22.3849 19.6 22.3849 21.23C22.3849 22.86 21.0649 24.18 19.4349 24.18ZM19.4349 19.56C18.5149 19.56 17.7749 20.31 17.7749 21.22C17.7749 22.14 18.5249 22.88 19.4349 22.88C20.3549 22.88 21.0948 22.13 21.0948 21.22C21.0948 20.31 20.3449 19.56 19.4349 19.56Z" fill="#F5FAFC"/>
<path d="M10.6752 24.18C9.04517 24.18 7.7251 22.86 7.7251 21.23C7.7251 19.6 9.04517 18.28 10.6752 18.28C12.3052 18.28 13.6251 19.6 13.6251 21.23C13.6251 22.86 12.3052 24.18 10.6752 24.18ZM10.6752 19.56C9.75517 19.56 9.01514 20.31 9.01514 21.22C9.01514 22.14 9.76517 22.88 10.6752 22.88C11.5952 22.88 12.3351 22.13 12.3351 21.22C12.3351 20.31 11.5952 19.56 10.6752 19.56Z" fill="#F5FAFC"/>
<path d="M28.1849 24.18C26.5549 24.18 25.2349 22.86 25.2349 21.23C25.2349 19.6 26.5549 18.28 28.1849 18.28C29.8149 18.28 31.1349 19.6 31.1349 21.23C31.1449 22.86 29.8149 24.18 28.1849 24.18ZM28.1849 19.56C27.2649 19.56 26.5249 20.31 26.5249 21.22C26.5249 22.14 27.2749 22.88 28.1849 22.88C29.0949 22.88 29.8448 22.13 29.8448 21.22C29.8548 20.31 29.1049 19.56 28.1849 19.56Z" fill="#F5FAFC"/>
</svg>
