<svg width="40" height="41" viewBox="0 0 40 41" fill="none" xmlns="http://www.w3.org/2000/svg">
<path d="M21.2448 14.7721C23.1867 17.212 24.4315 19.9009 21.2448 23.7848C23.7344 23.7848 25.7261 21.7433 25.7261 19.2536C25.7261 16.8137 23.7344 14.7721 21.2448 14.7721ZM28.7137 11.2867C24.2822 6.90478 17.1618 6.90478 12.7303 11.2867C8.94605 15.071 8.44813 20.7972 11.0871 25.1791L8 28.2664L11.7344 32.001L14.8216 28.9136C19.1535 31.6025 24.9295 31.0548 28.7137 27.2705C33.0954 22.8388 33.0954 15.7183 28.7137 11.2867ZM15.2697 24.7309C12.2822 21.6935 12.2822 16.8635 15.2697 13.826C18.2573 10.8384 23.1369 10.8384 26.1743 13.826C29.1618 16.8635 29.1618 21.6935 26.1743 24.7309C23.1369 27.7186 18.2573 27.7186 15.2697 24.7309Z" fill="#0C121C"/>
</svg>
