<svg width="40" height="41" viewBox="0 0 40 41" fill="none" xmlns="http://www.w3.org/2000/svg">
<path d="M28.008 10.2642C22.6885 9.38021 17.2595 9.38021 11.94 10.2642C8.898 10.9012 7 12.8642 7 15.4252V24.5252C7 27.1252 8.898 29.0622 11.992 29.7252C14.6382 30.1707 17.3166 30.3968 20 30.4012C22.6916 30.4006 25.3787 30.1788 28.034 29.7382C31.05 29.1662 33 27.1382 33 24.5382V15.4382C33 12.8512 31.05 10.8232 28.008 10.2642ZM24.238 20.5862L17.738 24.4862C17.6363 24.5481 17.519 24.5797 17.4 24.5772C17.2871 24.5763 17.176 24.5496 17.075 24.4992C16.9728 24.4371 16.8888 24.3491 16.8318 24.2441C16.7747 24.139 16.7464 24.0207 16.75 23.9012V16.1012C16.751 15.986 16.7813 15.8731 16.8382 15.773C16.8951 15.6729 16.9766 15.5889 17.075 15.5292C17.177 15.4745 17.2908 15.446 17.4065 15.446C17.5222 15.446 17.636 15.4745 17.738 15.5292L24.238 19.4292C24.3319 19.4891 24.4093 19.5717 24.4629 19.6694C24.5164 19.7671 24.5445 19.8767 24.5445 19.9882C24.5445 20.0996 24.5164 20.2092 24.4629 20.3069C24.4093 20.4046 24.3319 20.4873 24.238 20.5472V20.5862Z" fill="#F5FAFC"/>
</svg>
