<svg width="140" height="130" viewBox="0 0 140 130" fill="none" xmlns="http://www.w3.org/2000/svg">
<path d="M121.245 54.7724C123.187 57.2123 124.431 59.9012 121.245 63.7851C123.734 63.7851 125.726 61.7435 125.726 59.2538C125.726 56.8139 123.734 54.7724 121.245 54.7724ZM128.714 51.2869C124.282 46.905 117.162 46.905 112.73 51.2869C108.946 55.0712 108.448 60.7974 111.087 65.1793L108 68.2667L111.734 72.0012L114.822 68.9139C119.153 71.6027 124.929 71.0551 128.714 67.2707C133.095 62.8391 133.095 55.7186 128.714 51.2869ZM115.27 64.7312C112.282 61.6938 112.282 56.8637 115.27 53.8263C118.257 50.8386 123.137 50.8386 126.174 53.8263C129.162 56.8637 129.162 61.6938 126.174 64.7312C123.137 67.7188 118.257 67.7188 115.27 64.7312Z" fill="white"/>
<path d="M81.9543 108.972C81.7379 105.799 80.4757 102.914 78.4924 100.786C76.3287 98.478 73.2996 96.9995 69.982 96.9995C66.6643 96.9995 63.6352 98.442 61.4715 100.75C59.4882 102.878 58.2261 105.727 58.0097 108.9L57 109.91V114.959L58.5506 116.509C58.5867 117.555 58.767 119.358 59.957 120.656C60.8585 121.63 62.2288 121.774 63.3828 121.81C63.7434 121.81 64.068 121.774 64.3925 121.774C64.8974 122.496 65.9792 123 67.2413 123C68.2871 123 69.2247 122.676 69.8017 122.135C69.8738 122.135 69.9098 122.135 69.982 122.135C73.4078 122.099 76.2566 119.683 77.7351 116.653C77.8794 116.69 77.9875 116.689 78.1318 116.689C78.8891 116.689 79.6103 116.437 80.1872 116.04V116.942H81.0527L83 114.995V109.946L81.9543 108.972ZM58.9473 114.562H58.1179V110.306H58.9473V114.562ZM64.104 120.512C63.8516 120.512 63.6352 120.548 63.3828 120.548C62.337 120.548 61.3273 120.332 60.8946 119.827C59.9931 118.853 59.8128 116.978 59.8128 116.185C59.8128 116.149 59.8128 116.113 59.8128 116.076C60.3897 116.473 61.1109 116.689 61.8682 116.689C62.0125 116.689 62.1206 116.69 62.2649 116.653C62.8419 117.807 63.5992 118.853 64.5368 119.755C64.3204 119.971 64.1401 120.224 64.104 120.512ZM75.0666 118.024C73.8044 119.502 72.1456 120.476 70.3786 120.62C70.1983 119.538 68.8641 118.709 67.2053 118.709C66.7004 118.709 66.2316 118.817 65.7989 118.961C65.4383 118.637 65.0777 118.276 64.7531 117.88C63.8876 116.834 63.2385 115.536 62.8779 114.273L66.1595 109.441L67.4938 112.29L70.3426 109.441C70.3426 109.441 70.1984 112.434 73.6242 112.578C74.742 112.614 76.0042 112.362 77.2303 112.001C77.2303 112.11 77.2303 112.182 77.2303 112.29C77.2663 114.273 76.4369 116.401 75.0666 118.024ZM80.1512 109.946C79.6463 109.621 79.0694 109.369 78.4563 109.297C77.5187 104.104 74.2372 100.101 69.9459 100.065C65.6546 100.137 62.337 104.104 61.4355 109.333C60.8225 109.405 60.2816 109.657 59.8128 109.982V109.261C59.957 106.412 61.0749 103.887 62.8058 102.048C64.681 100.065 67.2052 98.8747 69.982 98.8747C72.7947 98.8747 75.319 100.101 77.1581 102.084C78.853 103.887 79.9709 106.376 80.1512 109.152V109.946ZM81.81 114.598H80.9806V110.343H81.81V114.598Z" fill="white"/>
<path d="M68.0785 7.83359L60.0928 16.6895C59.1466 17.7113 59.2223 19.3387 60.2821 20.2848C61.3039 21.231 62.9313 21.1553 63.8775 20.0956L67.0945 16.5381L66.3754 28.8758C66.3754 28.9515 66.3754 29.0272 66.3376 29.1029L66.3376 29.5192C66.4133 31.4493 68.0407 33.001 70.0087 33.001C71.9767 33.001 73.5663 31.4493 73.6799 29.5192L73.6799 29.065C73.6799 28.9893 73.6799 28.9515 73.6799 28.9137L72.9608 16.5381L76.1778 20.0956C77.124 21.1174 78.7135 21.231 79.7354 20.2848C80.3031 19.7928 80.568 19.1116 80.568 18.3925C80.568 17.787 80.341 17.1815 79.9247 16.6895L71.9389 7.83359C71.4469 7.30375 70.7657 7.00098 70.0466 7.00098C69.214 7.00098 68.5327 7.30375 68.0785 7.83359Z" fill="white"/>
<path d="M10.9972 63.661C12.9242 64.9907 15.436 64.7622 17.1059 63.2661L21.4582 66.2694C20.652 68.3615 21.3297 70.791 23.2566 72.1207C25.5158 73.6797 28.604 73.1133 30.163 70.8541C31.7221 68.5948 31.1558 65.5065 28.8966 63.9475C26.9696 62.6178 24.4578 62.8463 22.7879 64.3424L18.4356 61.3391C18.845 60.2483 18.8637 59.0841 18.5225 58.015L22.6724 55.4836C22.882 55.6773 23.1249 55.894 23.3574 56.0545C25.6166 57.6135 28.7049 57.047 30.264 54.7878C31.823 52.5285 31.2567 49.4402 28.9975 47.8812C26.7383 46.3223 23.65 46.8887 22.091 49.148C21.1739 50.4769 21.0027 52.0754 21.495 53.4941L17.3451 56.0254C17.1355 55.8317 16.8927 55.615 16.6601 55.4545C14.4009 53.8956 11.3126 54.462 9.75363 56.7213C8.17168 59.0138 8.73801 62.102 10.9972 63.661Z" fill="white"/>
</svg>
