<svg width="40" height="40" viewBox="0 0 40 40" fill="none" xmlns="http://www.w3.org/2000/svg">
<path d="M31.9543 18.9722C31.7379 15.7987 30.4757 12.9137 28.4924 10.786C26.3287 8.47802 23.2996 6.99951 19.982 6.99951C16.6643 6.99951 13.6352 8.44203 11.4715 10.75C9.48818 12.8777 8.22607 15.7265 8.00971 18.9L7 19.9097V24.9586L8.5506 26.5092C8.58666 27.555 8.76696 29.3581 9.95698 30.6563C10.8585 31.63 12.2288 31.7743 13.3828 31.8104C13.7434 31.8104 14.068 31.7743 14.3925 31.7743C14.8974 32.4955 15.9792 33.0004 17.2413 33.0004C18.2871 33.0004 19.2247 32.6758 19.8017 32.1349C19.8738 32.1349 19.9098 32.1349 19.982 32.1349C23.4078 32.0988 26.2566 29.6827 27.7351 26.6535C27.8794 26.6895 27.9875 26.6895 28.1318 26.6895C28.8891 26.6895 29.6103 26.4371 30.1872 26.0404V26.9419H31.0527L33 24.9945V19.9458L31.9543 18.9722ZM8.94727 24.5618H8.11788V20.3065H8.94727V24.5618ZM14.104 30.5121C13.8516 30.5121 13.6352 30.5482 13.3828 30.5482C12.337 30.5482 11.3273 30.3317 10.8946 29.8269C9.99308 28.8532 9.81276 26.978 9.81276 26.1847C9.81276 26.1486 9.81276 26.1125 9.81276 26.0765C10.3897 26.4732 11.1109 26.6895 11.8682 26.6895C12.0125 26.6895 12.1206 26.6895 12.2649 26.6535C12.8419 27.8075 13.5992 28.8532 14.5368 29.7548C14.3204 29.9712 14.1401 30.2236 14.104 30.5121ZM25.0666 28.0238C23.8044 29.5023 22.1456 30.476 20.3786 30.6202C20.1983 29.5384 18.8641 28.7089 17.2053 28.7089C16.7004 28.7089 16.2316 28.8172 15.7989 28.9614C15.4383 28.6368 15.0777 28.2763 14.7531 27.8796C13.8876 26.8338 13.2385 25.5355 12.8779 24.2734L16.1595 19.441L17.4938 22.2899L20.3426 19.441C20.3426 19.441 20.1984 22.4342 23.6242 22.5784C24.742 22.6145 26.0042 22.362 27.2303 22.0014C27.2303 22.1096 27.2303 22.1817 27.2303 22.2899C27.2663 24.2733 26.4369 26.401 25.0666 28.0238ZM30.1512 19.9458C29.6463 19.6213 29.0694 19.3689 28.4563 19.2968C27.5187 14.1038 24.2372 10.1009 19.9459 10.0648C15.6546 10.1369 12.337 14.1038 11.4355 19.3328C10.8225 19.405 10.2816 19.6574 9.81276 19.9819V19.2607C9.957 16.4117 11.0749 13.8874 12.8058 12.0482C14.681 10.0648 17.2052 8.87471 19.982 8.87471C22.7947 8.87471 25.319 10.1009 27.1581 12.0843C28.853 13.8874 29.9709 16.3757 30.1512 19.1525V19.9458ZM31.81 24.5979H30.9806V20.3426H31.81V24.5979Z" fill="white"/>
</svg>
