<svg width="40" height="41" viewBox="0 0 40 41" fill="none" xmlns="http://www.w3.org/2000/svg">
<path d="M21.2448 14.7724C23.1867 17.2123 24.4315 19.9012 21.2448 23.7851C23.7344 23.7851 25.7261 21.7435 25.7261 19.2538C25.7261 16.8139 23.7344 14.7724 21.2448 14.7724ZM28.7137 11.2869C24.2822 6.90502 17.1618 6.90502 12.7303 11.2869C8.94605 15.0712 8.44813 20.7974 11.0871 25.1793L8 28.2667L11.7344 32.0012L14.8216 28.9139C19.1535 31.6027 24.9295 31.0551 28.7137 27.2707C33.0954 22.8391 33.0954 15.7186 28.7137 11.2869ZM15.2697 24.7312C12.2822 21.6938 12.2822 16.8637 15.2697 13.8263C18.2573 10.8386 23.1369 10.8386 26.1743 13.8263C29.1618 16.8637 29.1618 21.6938 26.1743 24.7312C23.1369 27.7188 18.2573 27.7188 15.2697 24.7312Z" fill="white"/>
</svg>
