<svg width="120" height="82" viewBox="0 0 120 82" fill="none" xmlns="http://www.w3.org/2000/svg">
<path d="M18.42 57.9C13.54 57.9 9.8 56.08 7.2 52.44C4.6 48.8 3.3 43.18 3.3 35.58C3.3 31.7 3.66 28.42 4.38 25.74C5.14 23.06 6.18 20.88 7.5 19.2C8.82 17.52 10.38 16.32 12.18 15.6C13.98 14.84 15.94 14.46 18.06 14.46C19.82 14.46 21.46 14.7 22.98 15.18C24.5 15.62 25.74 16.18 26.7 16.86L25.08 21.36C24.12 20.72 23.08 20.2 21.96 19.8C20.88 19.4 19.62 19.2 18.18 19.2C14.98 19.2 12.66 20.54 11.22 23.22C9.78 25.86 9.06 29.98 9.06 35.58C9.06 41.22 9.82 45.56 11.34 48.6C12.86 51.64 15.34 53.16 18.78 53.16C20.42 53.16 21.74 52.96 22.74 52.56C23.78 52.16 24.78 51.64 25.74 51L27.24 55.26C26.32 55.98 25.1 56.6 23.58 57.12C22.1 57.64 20.38 57.9 18.42 57.9ZM39.4969 53.28C41.6569 53.28 43.3169 52.68 44.4769 51.48C45.6769 50.28 46.2769 48.66 46.2769 46.62C46.2769 45.54 46.0969 44.58 45.7369 43.74C45.3769 42.9 44.8969 42.14 44.2969 41.46C43.7369 40.78 43.0769 40.16 42.3169 39.6C41.5569 39.04 40.7769 38.48 39.9769 37.92C39.0569 37.28 38.0969 36.6 37.0969 35.88C36.0969 35.16 35.1769 34.32 34.3369 33.36C33.5369 32.4 32.8769 31.28 32.3569 30C31.8369 28.72 31.5769 27.22 31.5769 25.5C31.5769 23.82 31.8569 22.3 32.4169 20.94C33.0169 19.58 33.8169 18.42 34.8169 17.46C35.8569 16.5 37.0769 15.76 38.4769 15.24C39.9169 14.72 41.4569 14.46 43.0969 14.46C44.6969 14.46 46.1769 14.66 47.5369 15.06C48.8969 15.46 50.0369 15.94 50.9569 16.5L49.2769 20.76C48.4369 20.2 47.5169 19.78 46.5169 19.5C45.5569 19.18 44.5369 19.02 43.4569 19.02C41.4969 19.02 39.9169 19.56 38.7169 20.64C37.5569 21.68 36.9769 23.22 36.9769 25.26C36.9769 26.38 37.1569 27.36 37.5169 28.2C37.9169 29.04 38.4169 29.8 39.0169 30.48C39.6569 31.16 40.3769 31.78 41.1769 32.34C42.0169 32.9 42.8969 33.48 43.8169 34.08C44.7369 34.68 45.6769 35.34 46.6369 36.06C47.5969 36.78 48.4569 37.62 49.2169 38.58C50.0169 39.5 50.6569 40.6 51.1369 41.88C51.6569 43.12 51.9169 44.6 51.9169 46.32C51.9169 47.88 51.6769 49.36 51.1969 50.76C50.7169 52.16 49.9569 53.4 48.9169 54.48C47.9169 55.52 46.6369 56.36 45.0769 57C43.5569 57.6 41.7569 57.9 39.6769 57.9C37.7569 57.9 36.0769 57.68 34.6369 57.24C33.1969 56.8 31.9169 56.22 30.7969 55.5L32.4769 51.18C33.5169 51.82 34.5769 52.34 35.6569 52.74C36.7769 53.1 38.0569 53.28 39.4969 53.28ZM79.3922 41.28C79.3922 43.76 79.1722 46.02 78.7322 48.06C78.2922 50.06 77.6122 51.78 76.6922 53.22C75.8122 54.66 74.6722 55.78 73.2722 56.58C71.9122 57.38 70.2922 57.78 68.4122 57.78C66.5322 57.78 64.8922 57.38 63.4922 56.58C62.0922 55.78 60.9322 54.66 60.0122 53.22C59.1322 51.78 58.4722 50.06 58.0322 48.06C57.5922 46.02 57.3722 43.76 57.3722 41.28C57.3722 38.84 57.5922 36.6 58.0322 34.56C58.4722 32.52 59.1322 30.78 60.0122 29.34C60.9322 27.86 62.0922 26.72 63.4922 25.92C64.8922 25.12 66.5322 24.72 68.4122 24.72C70.2922 24.72 71.9122 25.12 73.2722 25.92C74.6722 26.72 75.8122 27.86 76.6922 29.34C77.6122 30.78 78.2922 32.52 78.7322 34.56C79.1722 36.6 79.3922 38.84 79.3922 41.28ZM73.9922 41.28C73.9922 39.52 73.8922 37.92 73.6922 36.48C73.4922 35 73.1722 33.74 72.7322 32.7C72.2922 31.62 71.7122 30.8 70.9922 30.24C70.2722 29.64 69.4122 29.34 68.4122 29.34C67.3722 29.34 66.4922 29.64 65.7722 30.24C65.0922 30.8 64.5122 31.62 64.0322 32.7C63.5922 33.74 63.2722 35 63.0722 36.48C62.8722 37.92 62.7722 39.52 62.7722 41.28C62.7722 43.04 62.8722 44.66 63.0722 46.14C63.2722 47.58 63.5922 48.82 64.0322 49.86C64.5122 50.9 65.0922 51.72 65.7722 52.32C66.4922 52.88 67.3722 53.16 68.4122 53.16C69.4122 53.16 70.2722 52.88 70.9922 52.32C71.7122 51.72 72.2922 50.9 72.7322 49.86C73.1722 48.82 73.4922 47.58 73.6922 46.14C73.8922 44.66 73.9922 43.04 73.9922 41.28ZM96.1256 10.44C97.2856 10.44 98.3056 10.56 99.1856 10.8C100.066 11.04 100.786 11.3 101.346 11.58L100.266 15.66C99.7056 15.38 99.1256 15.18 98.5256 15.06C97.9256 14.9 97.2856 14.82 96.6056 14.82C95.6856 14.82 94.9256 14.98 94.3256 15.3C93.7256 15.62 93.2656 16.06 92.9456 16.62C92.6256 17.18 92.4056 17.86 92.2856 18.66C92.1656 19.42 92.1056 20.24 92.1056 21.12V25.5H100.206V29.94H92.1056V57H86.9456V21.12C86.9456 17.72 87.7056 15.1 89.2256 13.26C90.7456 11.38 93.0456 10.44 96.1256 10.44ZM110.085 25.5H118.005V29.94H110.085V47.28C110.085 49.44 110.465 50.96 111.225 51.84C112.025 52.68 113.085 53.1 114.405 53.1C115.085 53.1 115.725 53 116.325 52.8C116.965 52.6 117.505 52.36 117.945 52.08L118.965 56.22C117.325 57.18 115.585 57.66 113.745 57.66C110.785 57.66 108.565 56.84 107.085 55.2C105.645 53.52 104.925 50.76 104.925 46.92V17.04L110.085 16.14V25.5Z" fill="#F5FAFC"/>
<path d="M3.17 71.125H4.46V77.89H6.725V71.125H8.015V77.95H8.975V81.175H7.715V79H3.17V71.125ZM18.2841 71.08V79H17.0691V73.3C16.8591 73.69 16.6241 74.135 16.3641 74.635C16.1041 75.135 15.8441 75.645 15.5841 76.165C15.3341 76.685 15.0941 77.195 14.8641 77.695C14.6441 78.185 14.4591 78.62 14.3091 79H13.2891V71.08H14.4891V76.27C14.6691 75.86 14.8791 75.42 15.1191 74.95C15.3591 74.47 15.6041 74 15.8541 73.54C16.1041 73.07 16.3491 72.625 16.5891 72.205C16.8391 71.775 17.0691 71.4 17.2791 71.08H18.2841ZM26.268 81.745V79.03C25.758 78.97 25.303 78.83 24.903 78.61C24.513 78.39 24.178 78.11 23.898 77.77C23.628 77.42 23.418 77.015 23.268 76.555C23.128 76.095 23.058 75.6 23.058 75.07C23.058 74.54 23.128 74.045 23.268 73.585C23.418 73.125 23.628 72.725 23.898 72.385C24.178 72.035 24.513 71.75 24.903 71.53C25.303 71.31 25.758 71.17 26.268 71.11V67.585L27.438 67.36V71.11C27.948 71.17 28.398 71.31 28.788 71.53C29.188 71.75 29.523 72.035 29.793 72.385C30.063 72.725 30.268 73.125 30.408 73.585C30.558 74.045 30.633 74.54 30.633 75.07C30.633 75.6 30.558 76.095 30.408 76.555C30.268 77.015 30.063 77.42 29.793 77.77C29.523 78.11 29.188 78.39 28.788 78.61C28.398 78.83 27.948 78.97 27.438 79.03V81.745H26.268ZM24.363 74.995C24.363 75.755 24.513 76.395 24.813 76.915C25.123 77.435 25.608 77.76 26.268 77.89V72.25C25.608 72.36 25.123 72.66 24.813 73.15C24.513 73.63 24.363 74.245 24.363 74.995ZM29.328 74.995C29.328 74.245 29.178 73.625 28.878 73.135C28.578 72.645 28.098 72.345 27.438 72.235V77.905C28.098 77.775 28.578 77.45 28.878 76.93C29.178 76.4 29.328 75.755 29.328 74.995ZM36.6774 77.815C36.9674 77.975 37.2774 78.055 37.6074 78.055C37.8574 78.055 38.0774 78.005 38.2674 77.905C38.4574 77.805 38.6174 77.64 38.7474 77.41C38.8874 77.18 38.9924 76.875 39.0624 76.495C39.1324 76.115 39.1674 75.645 39.1674 75.085C39.1674 74.005 39.0274 73.235 38.7474 72.775C38.4774 72.305 38.0424 72.07 37.4424 72.07C37.3324 72.07 37.2124 72.08 37.0824 72.1C36.9524 72.11 36.8174 72.135 36.6774 72.175V77.815ZM36.6774 81.775H35.3874V71.335C35.6674 71.215 35.9824 71.12 36.3324 71.05C36.6924 70.97 37.0574 70.93 37.4274 70.93C37.9774 70.93 38.4474 71.025 38.8374 71.215C39.2374 71.405 39.5574 71.68 39.7974 72.04C40.0474 72.39 40.2274 72.825 40.3374 73.345C40.4574 73.855 40.5174 74.44 40.5174 75.1C40.5174 76.43 40.3024 77.445 39.8724 78.145C39.4524 78.845 38.7624 79.195 37.8024 79.195C37.5724 79.195 37.3674 79.17 37.1874 79.12C37.0074 79.08 36.8374 79.02 36.6774 78.94V81.775ZM50.4594 75.07C50.4594 75.69 50.4044 76.255 50.2944 76.765C50.1844 77.265 50.0144 77.695 49.7844 78.055C49.5644 78.415 49.2794 78.695 48.9294 78.895C48.5894 79.095 48.1844 79.195 47.7144 79.195C47.2444 79.195 46.8344 79.095 46.4844 78.895C46.1344 78.695 45.8444 78.415 45.6144 78.055C45.3944 77.695 45.2294 77.265 45.1194 76.765C45.0094 76.255 44.9544 75.69 44.9544 75.07C44.9544 74.46 45.0094 73.9 45.1194 73.39C45.2294 72.88 45.3944 72.445 45.6144 72.085C45.8444 71.715 46.1344 71.43 46.4844 71.23C46.8344 71.03 47.2444 70.93 47.7144 70.93C48.1844 70.93 48.5894 71.03 48.9294 71.23C49.2794 71.43 49.5644 71.715 49.7844 72.085C50.0144 72.445 50.1844 72.88 50.2944 73.39C50.4044 73.9 50.4594 74.46 50.4594 75.07ZM49.1094 75.07C49.1094 74.63 49.0844 74.23 49.0344 73.87C48.9844 73.5 48.9044 73.185 48.7944 72.925C48.6844 72.655 48.5394 72.45 48.3594 72.31C48.1794 72.16 47.9644 72.085 47.7144 72.085C47.4544 72.085 47.2344 72.16 47.0544 72.31C46.8844 72.45 46.7394 72.655 46.6194 72.925C46.5094 73.185 46.4294 73.5 46.3794 73.87C46.3294 74.23 46.3044 74.63 46.3044 75.07C46.3044 75.51 46.3294 75.915 46.3794 76.285C46.4294 76.645 46.5094 76.955 46.6194 77.215C46.7394 77.475 46.8844 77.68 47.0544 77.83C47.2344 77.97 47.4544 78.04 47.7144 78.04C47.9644 78.04 48.1794 77.97 48.3594 77.83C48.5394 77.68 48.6844 77.475 48.7944 77.215C48.9044 76.955 48.9844 76.645 49.0344 76.285C49.0844 75.915 49.1094 75.51 49.1094 75.07ZM56.6377 75.445V78.01C56.9677 78.07 57.2977 78.1 57.6277 78.1C58.0477 78.1 58.4027 78.005 58.6927 77.815C58.9827 77.615 59.1277 77.27 59.1277 76.78C59.1277 76.27 58.9877 75.92 58.7077 75.73C58.4377 75.54 58.0377 75.445 57.5077 75.445H56.6377ZM57.6127 79.135C57.1527 79.135 56.7177 79.1 56.3077 79.03C55.8977 78.97 55.5777 78.9 55.3477 78.82V71.245C55.6077 71.165 55.9327 71.095 56.3227 71.035C56.7227 70.965 57.1527 70.93 57.6127 70.93C57.9427 70.93 58.2627 70.97 58.5727 71.05C58.8927 71.13 59.1727 71.255 59.4127 71.425C59.6527 71.595 59.8427 71.825 59.9827 72.115C60.1327 72.395 60.2077 72.735 60.2077 73.135C60.2077 73.555 60.1127 73.91 59.9227 74.2C59.7327 74.48 59.4777 74.71 59.1577 74.89C59.5277 75.03 59.8377 75.265 60.0877 75.595C60.3377 75.925 60.4627 76.315 60.4627 76.765C60.4627 77.225 60.3877 77.61 60.2377 77.92C60.0977 78.22 59.8977 78.46 59.6377 78.64C59.3877 78.82 59.0877 78.945 58.7377 79.015C58.3877 79.095 58.0127 79.135 57.6127 79.135ZM57.4927 71.995C57.2327 71.995 56.9477 72.025 56.6377 72.085V74.485H57.4927C57.9427 74.485 58.2877 74.4 58.5277 74.23C58.7677 74.06 58.8877 73.74 58.8877 73.27C58.8877 73 58.8477 72.785 58.7677 72.625C58.6877 72.455 58.5777 72.325 58.4377 72.235C58.3077 72.135 58.1577 72.07 57.9877 72.04C57.8277 72.01 57.6627 71.995 57.4927 71.995ZM70.2275 71.08V79H69.0125V73.3C68.8025 73.69 68.5675 74.135 68.3075 74.635C68.0475 75.135 67.7875 75.645 67.5275 76.165C67.2775 76.685 67.0375 77.195 66.8075 77.695C66.5875 78.185 66.4025 78.62 66.2525 79H65.2325V71.08H66.4325V76.27C66.6125 75.86 66.8225 75.42 67.0625 74.95C67.3025 74.47 67.5475 74 67.7975 73.54C68.0475 73.07 68.2925 72.625 68.5325 72.205C68.7825 71.775 69.0125 71.4 69.2225 71.08H70.2275ZM77.9564 74.815C78.3464 74.955 78.6714 75.21 78.9314 75.58C79.1914 75.95 79.3214 76.365 79.3214 76.825C79.3214 77.615 79.0814 78.215 78.6014 78.625C78.1314 79.025 77.5164 79.225 76.7564 79.225C76.4164 79.225 76.0814 79.185 75.7514 79.105C75.4214 79.035 75.1214 78.92 74.8514 78.76L75.0614 77.695C75.2714 77.805 75.5264 77.9 75.8264 77.98C76.1264 78.06 76.4214 78.1 76.7114 78.1C76.8914 78.1 77.0614 78.08 77.2214 78.04C77.3814 77.99 77.5214 77.92 77.6414 77.83C77.7614 77.73 77.8564 77.6 77.9264 77.44C78.0064 77.27 78.0464 77.065 78.0464 76.825C78.0464 76.555 77.9964 76.33 77.8964 76.15C77.7964 75.96 77.6614 75.81 77.4914 75.7C77.3214 75.59 77.1214 75.51 76.8914 75.46C76.6714 75.41 76.4364 75.385 76.1864 75.385H75.6764V74.365H76.0964C76.6864 74.365 77.1214 74.26 77.4014 74.05C77.6814 73.84 77.8214 73.56 77.8214 73.21C77.8214 72.83 77.7014 72.555 77.4614 72.385C77.2314 72.215 76.9564 72.13 76.6364 72.13C76.4164 72.13 76.1864 72.165 75.9464 72.235C75.7064 72.305 75.4664 72.41 75.2264 72.55L74.9564 71.455C75.2264 71.315 75.5114 71.205 75.8114 71.125C76.1114 71.035 76.4264 70.99 76.7564 70.99C77.4564 70.99 78.0164 71.175 78.4364 71.545C78.8664 71.915 79.0814 72.41 79.0814 73.03C79.0814 73.46 78.9714 73.83 78.7514 74.14C78.5414 74.44 78.2764 74.665 77.9564 74.815ZM84.1845 71.29C84.4445 71.18 84.7195 71.095 85.0095 71.035C85.2995 70.965 85.6145 70.93 85.9545 70.93C86.6545 70.93 87.2245 71.15 87.6645 71.59C88.1045 72.02 88.3245 72.695 88.3245 73.615V78.835C87.9645 78.935 87.5945 79.015 87.2145 79.075C86.8445 79.135 86.4795 79.165 86.1195 79.165C85.7595 79.165 85.4195 79.12 85.0995 79.03C84.7895 78.94 84.5145 78.795 84.2745 78.595C84.0445 78.395 83.8595 78.145 83.7195 77.845C83.5795 77.535 83.5095 77.16 83.5095 76.72C83.5095 76.31 83.5695 75.955 83.6895 75.655C83.8195 75.345 83.9945 75.09 84.2145 74.89C84.4345 74.68 84.6945 74.525 84.9945 74.425C85.2945 74.315 85.6195 74.26 85.9695 74.26C86.2995 74.26 86.6645 74.3 87.0645 74.38V73.66C87.0645 73.08 86.9495 72.675 86.7195 72.445C86.4995 72.215 86.1795 72.1 85.7595 72.1C85.5295 72.1 85.3095 72.125 85.0995 72.175C84.8995 72.215 84.6845 72.285 84.4545 72.385L84.1845 71.29ZM84.7995 76.705C84.7995 77.165 84.9195 77.505 85.1595 77.725C85.3995 77.945 85.7395 78.055 86.1795 78.055C86.4495 78.055 86.7445 78.02 87.0645 77.95V75.445C86.7645 75.365 86.4695 75.325 86.1795 75.325C85.9895 75.325 85.8095 75.35 85.6395 75.4C85.4695 75.44 85.3195 75.515 85.1895 75.625C85.0695 75.725 84.9745 75.865 84.9045 76.045C84.8345 76.215 84.7995 76.435 84.7995 76.705ZM93.5684 71.125H94.8584V77.89H97.1234V71.125H98.4134V77.95H99.3734V81.175H98.1134V79H93.5684V71.125ZM108.683 71.08V79H107.468V73.3C107.258 73.69 107.023 74.135 106.763 74.635C106.503 75.135 106.243 75.645 105.983 76.165C105.733 76.685 105.493 77.195 105.263 77.695C105.043 78.185 104.858 78.62 104.708 79H103.688V71.08H104.888V76.27C105.068 75.86 105.278 75.42 105.518 74.95C105.758 74.47 106.003 74 106.253 73.54C106.503 73.07 106.748 72.625 106.988 72.205C107.238 71.775 107.468 71.4 107.678 71.08H108.683ZM117.026 79V76.045H116.411C116.331 76.045 116.256 76.045 116.186 76.045C116.116 76.045 116.041 76.04 115.961 76.03C115.761 76.48 115.566 76.97 115.376 77.5C115.186 78.02 115.011 78.52 114.851 79H113.531C113.601 78.76 113.686 78.495 113.786 78.205C113.886 77.915 113.996 77.625 114.116 77.335C114.236 77.035 114.361 76.745 114.491 76.465C114.621 76.185 114.741 75.93 114.851 75.7C114.481 75.5 114.191 75.22 113.981 74.86C113.781 74.49 113.681 74.035 113.681 73.495C113.681 73.055 113.751 72.675 113.891 72.355C114.031 72.035 114.221 71.77 114.461 71.56C114.711 71.35 115.001 71.195 115.331 71.095C115.671 70.985 116.041 70.93 116.441 70.93C116.771 70.93 117.091 70.955 117.401 71.005C117.721 71.055 118.026 71.12 118.316 71.2V79H117.026ZM117.026 72.07C116.916 72.05 116.811 72.035 116.711 72.025C116.611 72.005 116.506 71.995 116.396 71.995C115.476 71.995 115.016 72.495 115.016 73.495C115.016 73.915 115.116 74.265 115.316 74.545C115.516 74.815 115.881 74.95 116.411 74.95H117.026V72.07Z" fill="#F5FAFC"/>
</svg>
